PathFileType	4	(X/Y/Z)	C:/Users/opensim2020/Desktop/walking_exp_matlab/subject02_walking07_straight_04.trc																																																																																																																																																				
DataRate	CameraRate	NumFrames	NumMarkers	Units	OrigDataRate	OrigDataStartFrame	OrigNumFrames																																																																																																																																																
100	100	4	50	mm	100	2850	207																																																																																																																																																
Frame#	Time	LFHD			RFHD			LBHD			RBHD			C7			T10			CLAV			STRN			RBAK			LSHO			LUPA			LELB			LFRM			LWRA			LWRB			LFIN			RSHO			RUPA			RELB			RFRM			RWRA			RWRB			RFIN			LASI			RASI			LPSI			RPSI			LTHI			LKNE			LTIB			LANK			LHEE			LTOE			RTHI			RKNE			RTIB			RANK			RHEE			RTOE			*39			*40			*41			*42			*43			*44			*45			*46			*47			*48			*49		
		X1	Y1	Z1	X2	Y2	Z2	X3	Y3	Z3	X4	Y4	Z4	X5	Y5	Z5	X6	Y6	Z6	X7	Y7	Z7	X8	Y8	Z8	X9	Y9	Z9	X10	Y10	Z10	X11	Y11	Z11	X12	Y12	Z12	X13	Y13	Z13	X14	Y14	Z14	X15	Y15	Z15	X16	Y16	Z16	X17	Y17	Z17	X18	Y18	Z18	X19	Y19	Z19	X20	Y20	Z20	X21	Y21	Z21	X22	Y22	Z22	X23	Y23	Z23	X24	Y24	Z24	X25	Y25	Z25	X26	Y26	Z26	X27	Y27	Z27	X28	Y28	Z28	X29	Y29	Z29	X30	Y30	Z30	X31	Y31	Z31	X32	Y32	Z32	X33	Y33	Z33	X34	Y34	Z34	X35	Y35	Z35	X36	Y36	Z36	X37	Y37	Z37	X38	Y38	Z38	X39	Y39	Z39	X40	Y40	Z40	X41	Y41	Z41	X42	Y42	Z42	X43	Y43	Z43	X44	Y44	Z44	X45	Y45	Z45	X46	Y46	Z46	X47	Y47	Z47	X48	Y48	Z48	X49	Y49	Z49	X50	Y50	Z50
																																																																																																																																																							
130	1.29	469.37415	1735.94946	994.01178	450.01236	1711.45361	1134.18457	333.98587	1676.62268	966.87299	301.81479	1652.18372	1105.25635	261.74667	1524.45276	1033.67285	219.959	1246.82385	1047.12573	404.97342	1461.57666	1026.80774	464.79333	1293.94006	1041.24377	209.08815	1347.19116	1101.27637	335.85428	1497.24719	855.16608	329.24857	1292.81409	781.15393	326.14218	1152.88342	776.82349	326.18161	1024.10974	760.60571	365.91028	889.1955	790.80188	324.85916	901.01489	752.88788	329.65097	833.41364	751.90784	332.61877	1496.15833	1222.82068	308.66196	1304.93811	1309.27759	329.76166	1160.20728	1330.53723	366.53439	1046.55432	1353.33533	425.25327	923.88519	1339.8645	377.63638	917.59802	1369.60852	419.60092	858.01166	1375.44324	447.93286	983.48376	913.50317	458.78171	980.53906	1169.4856	241.60622	1029.25195	1005.24078	241.57228	1034.75647	1120.69849	409.29489	676.06555	846.66345	401.63647	489.74872	857.22662	257.67178	373.03592	870.66455	135.94455	187.24576	895.97772	104.70296	174.28406	956.12915	227.18225	72.00041	847.07416	406.90112	672.94324	1233.41858	419.9675	464.48355	1184.43091	376.62097	279.47449	1184.28906	355.03726	89.50698	1137.92627	321.5264	37.37925	1079.97571	506.35486	35.69055	1157.7052	364.73734	1808.25977	1074.38367	NaN	NaN	NaN	NaN	NaN	NaN	NaN	NaN	NaN	NaN	NaN	NaN	NaN	NaN	NaN	NaN	NaN	NaN	NaN	NaN	NaN	NaN	NaN	NaN	NaN	NaN	NaN	NaN	NaN	NaN
131	1.3	478.77383	1737.12122	994.15979	459.60962	1712.77112	1134.2074	342.59958	1677.70679	967.27014	311.25116	1653.37061	1106.09314	270.51749	1525.92224	1035.10657	228.54756	1248.21997	1049.27905	413.88248	1462.53491	1027.43494	473.21466	1294.81104	1042.27747	218.12521	1348.9978	1103.15466	343.9183	1497.75452	856.37262	333.59067	1293.49292	782.60486	327.02985	1153.70154	778.93359	323.42892	1024.93616	762.83832	359.58536	888.80469	793.88971	319.73663	901.81946	755.25494	321.89127	833.81097	754.97229	342.89368	1498.03589	1223.85071	321.07504	1307.15332	1311.6875	343.7912	1162.51038	1333.27527	382.81131	1049.35706	1355.1709	443.65326	928.26825	1341.19739	396.71024	920.7868	1371.59998	440.20798	862.43243	1377.06934	456.48447	985.72052	915.34058	467.2326	981.83472	1171.33008	249.81046	1030.63062	1006.4328	249.6162	1035.39294	1121.81885	422.04645	678.4649	847.67303	417.69519	491.62891	858.70227	276.85126	370.75595	872.3739	160.77464	181.35101	898.22064	129.86249	167.02695	958.50726	256.13205	69.91231	849.21143	410.7662	672.92273	1233.58569	421.95999	464.31546	1184.72852	377.95212	279.50668	1184.51843	355.19427	89.81899	1138.08252	321.53271	37.49319	1079.91211	506.41425	35.76989	1157.72449	374.09723	1809.62561	1074.80139	NaN	NaN	NaN	NaN	NaN	NaN	NaN	NaN	NaN	NaN	NaN	NaN	NaN	NaN	NaN	NaN	NaN	NaN	NaN	NaN	NaN	NaN	NaN	NaN	NaN	NaN	NaN	NaN	NaN	NaN
132	1.31	487.29779	1737.63318	993.67029	469.24155	1713.96033	1134.15161	351.71375	1678.22388	968.10913	320.69601	1654.63184	1106.89929	279.4404	1526.98584	1036.36243	237.09288	1249.48352	1051.26929	421.78397	1463.14734	1028.12695	481.5069	1295.48291	1043.08459	227.15715	1350.56689	1105.49194	351.56714	1498.39368	857.34033	336.74005	1294.34192	783.75641	327.92212	1154.64966	780.81396	322.22974	1026.0918	764.80786	354.11569	888.68988	796.98816	315.1326	903.14606	757.71405	314.80396	834.70599	757.81073	352.94669	1499.98303	1224.57166	333.47241	1309.30554	1313.90173	357.77661	1164.89844	1336.20215	399.33072	1052.49158	1357.50378	462.05685	932.54633	1342.37683	415.70218	924.11523	1373.54028	460.69135	866.8609	1378.51782	465.16162	988.07434	917.45325	473.6991	982.50293	1173.32837	258.10052	1031.89612	1007.22559	257.58978	1035.99243	1122.64294	434.55252	680.62079	848.68085	433.4238	493.33203	860.17084	296.27182	367.89227	873.7085	186.32643	174.81035	900.30212	155.76108	159.33722	960.5127	285.93323	67.41865	851.33142	414.69812	672.83301	1234.11145	423.98306	464.13196	1184.95483	379.36969	279.48621	1184.58362	355.37912	89.91099	1138.07446	321.52017	37.61822	1079.86401	506.35687	35.72306	1157.78101	383.5679	1810.70959	1074.81958	NaN	NaN	NaN	NaN	NaN	NaN	NaN	NaN	NaN	NaN	NaN	NaN	NaN	NaN	NaN	NaN	NaN	NaN	NaN	NaN	NaN	NaN	NaN	NaN	NaN	NaN	NaN	NaN	NaN	NaN
133	1.32	496.40161	1738.3446	993.29272	479.02084	1714.88733	1134.08167	360.24899	1679.5791	968.26648	330.26566	1655.86218	1107.48499	288.44427	1528.13464	1037.64758	245.62024	1250.68469	1053.15588	430.43521	1463.86938	1028.69019	490.01636	1296.27441	1044.01367	236.09416	1351.91626	1107.74463	358.9061	1498.8894	858.22485	340.02451	1295.03772	784.79218	328.57959	1155.63904	782.54352	319.80527	1027.04211	767.12262	348.92065	889.31506	799.73743	309.81958	904.07941	760.06042	308.77667	835.86212	760.61597	363.07117	1501.72827	1225.44629	345.81464	1311.4696	1316.06018	371.97391	1167.14893	1338.51196	415.65872	1055.52466	1359.07825	480.63516	937.05688	1343.4801	434.65958	927.53656	1375.32629	481.0932	871.41467	1379.75464	473.86719	990.37671	919.9184	481.06467	983.2843	1175.32043	266.53922	1033.12805	1007.75214	265.48099	1036.55151	1123.2771	447.11035	683.09564	849.4043	448.84781	494.86276	861.55133	315.74567	364.45142	874.84967	212.60539	167.59036	902.13336	182.2471	151.02455	962.37109	316.4856	64.63455	853.3194	418.82059	672.76306	1234.6073	425.87546	463.90652	1185.11853	380.65747	279.4646	1184.63049	355.53571	90.01692	1138.04382	321.05313	37.38235	1079.95178	506.45108	35.71381	1157.89258	392.95615	1811.67969	1074.79004	NaN	NaN	NaN	NaN	NaN	NaN	NaN	NaN	NaN	NaN	NaN	NaN	NaN	NaN	NaN	NaN	NaN	NaN	NaN	NaN	NaN	NaN	NaN	NaN	NaN	NaN	NaN	NaN	NaN	NaN
